<svg xmlns="http://www.w3.org/2000/svg" xmlns:xlink="http://www.w3.org/1999/xlink" width="394.408" height="271.043" viewBox="0 0 394.408 271.043">
  <defs>
    <clipPath id="clip-path">
      <rect id="사각형_17142" data-name="사각형 17142" width="394.408" height="271.043" fill="none"/>
    </clipPath>
  </defs>
  <g id="그룹_22048" data-name="그룹 22048" transform="translate(-763 -255)">
    <g id="그룹_22044" data-name="그룹 22044" transform="translate(763 255)">
      <g id="그룹_22043" data-name="그룹 22043" clip-path="url(#clip-path)">
        <path id="패스_17500" data-name="패스 17500" d="M356.746,233.861H10.632a3.241,3.241,0,0,1-3.24-3.243V22.761a19.829,19.829,0,0,1,19.8-19.818h313a19.834,19.834,0,0,1,19.8,19.818V230.618a3.241,3.241,0,0,1-3.243,3.243" transform="translate(13.509 5.38)" fill="#f2f2f2"/>
        <path id="패스_17501" data-name="패스 17501" d="M16.884,248.822A12.811,12.811,0,0,1,3.971,236V28.139C3.971,11.844,17.159,0,33.442,0h313C362.726,0,377.2,11.844,377.2,28.139V236c0,7.156-7.049,12.826-14.205,12.826Z" transform="translate(7.257 0.001)" fill="#fff"/>
        <path id="패스_17502" data-name="패스 17502" d="M339.133,3h-313C15.219,3,7.975,11.729,7.975,22.657V230.513c0,1.793-.187,4.343,1.6,4.343H355.691c1.793,0,5.723-2.55,5.723-4.343V22.657C361.414,11.729,350.048,3,339.133,3m13.8,226.2H13.63V22.657c0-7.354,5.163-11.174,12.5-11.174h313c7.34,0,13.8,3.82,13.8,11.174Z" transform="translate(14.564 5.484)" fill="#f2f2f2"/>
        <path id="패스_17503" data-name="패스 17503" d="M321.677,198.812H18.171a3.241,3.241,0,0,1-3.24-3.243V13.711a3.24,3.24,0,0,1,3.24-3.24H321.677a3.241,3.241,0,0,1,3.243,3.24V195.569a3.241,3.241,0,0,1-3.243,3.243" transform="translate(27.287 19.137)" fill="#f2f2f2"/>
        <path id="패스_17504" data-name="패스 17504" d="M370.28,120.6H24.141C10.832,120.6,0,112.012,0,101.456V85.56a3.241,3.241,0,0,1,3.24-3.243H391.167a3.241,3.241,0,0,1,3.24,3.243v15.9c0,10.555-10.821,19.148-24.127,19.148M6.481,88.8v12.653c0,6.865,8.09,12.664,17.661,12.664H370.28c9.566,0,17.644-5.8,17.644-12.664V88.8Z" transform="translate(0 150.437)" fill="#f2f2f2"/>
        <path id="패스_17505" data-name="패스 17505" d="M76.319,105.859a10.186,10.186,0,1,1,10.2-10.2,10.2,10.2,0,0,1-10.2,10.2m0-13.886a3.7,3.7,0,1,0,3.71,3.69,3.694,3.694,0,0,0-3.71-3.69" transform="translate(120.877 156.23)" fill="#f2f2f2"/>
      </g>
    </g>
    <path id="패스_17506" data-name="패스 17506" d="M61.478-29.5h-10.2V0H40.217V-29.5H2.3V-41.6L40.678-85.792h10.6v47.073h10.2ZM40.217-38.719V-72.252L11.293-38.719Zm83.833-4.206q0,23.1-6.712,33.908T96.624,1.786q-14.174,0-20.8-11T69.2-42.81q0-23.22,6.712-33.965T96.624-87.521q14.174,0,20.8,11.12T124.05-42.925ZM109.3-16.767a42.145,42.145,0,0,0,2.362-10.774,148.062,148.062,0,0,0,.691-15.384,147.4,147.4,0,0,0-.691-15.326,41.234,41.234,0,0,0-2.42-10.832,14.921,14.921,0,0,0-4.753-6.655,12.739,12.739,0,0,0-7.865-2.276,12.894,12.894,0,0,0-7.865,2.276,15.048,15.048,0,0,0-4.869,6.77,41.094,41.094,0,0,0-2.362,11.063q-.634,6.684-.634,15.1,0,8.988.547,15.038a40.092,40.092,0,0,0,2.391,10.832,15.122,15.122,0,0,0,4.753,6.828,12.744,12.744,0,0,0,8.038,2.391A12.894,12.894,0,0,0,104.489-10,14.685,14.685,0,0,0,109.3-16.767ZM190.31-29.5h-10.2V0H169.049V-29.5H131.137V-41.6L169.51-85.792h10.6v47.073h10.2Zm-21.261-9.219V-72.252L140.125-38.719Z" transform="translate(864 415)" fill="#3182f6"/>
  </g>
</svg>
