<svg xmlns="http://www.w3.org/2000/svg" width="100.458" height="18.04" viewBox="0 0 100.458 18.04"><path d="M9.724.132V-13.684H13.09a1.794,1.794,0,0,0,1.782-1.958,1.729,1.729,0,0,0-1.782-1.892H1.782A1.729,1.729,0,0,0,0-15.642a1.794,1.794,0,0,0,1.782,1.958H5.148V.132ZM34.166-10.692a2.076,2.076,0,0,0-1.32-2.86,2.065,2.065,0,0,0-2.706,1.518L28.49-4.972,26.444-11.88a2.014,2.014,0,0,0-2.068-1.606,1.975,1.975,0,0,0-1.98,1.628L20.35-5.038l-1.694-6.974a2.157,2.157,0,0,0-2.794-1.54,2.1,2.1,0,0,0-1.408,2.838L17.71.132H22L24.376-7.15,26.642.132h4.29ZM42.13.506A8.579,8.579,0,0,0,46-.374a2.008,2.008,0,0,0,1.122-2.618,1.581,1.581,0,0,0-1.738-.836,5.163,5.163,0,0,0-1.034.33,5.834,5.834,0,0,1-2.134.286c-1.056,0-2.508-.506-2.508-2v-.022h7.876A9.5,9.5,0,0,0,47.7-6.6c0-5.83-3.014-7.018-6.072-7.018-2.816,0-6.27,1.408-6.27,6.094v1.936C35.354-.99,38.94.506,42.13.506Zm-.484-10.56a1.641,1.641,0,0,1,1.782,1.936H39.71A1.782,1.782,0,0,1,41.646-10.054ZM61.424.132V-7.744c0-4.752-2.816-5.874-6.006-5.874a8.1,8.1,0,0,0-4.51,1.188,1.87,1.87,0,0,0-.7,2.354,1.79,1.79,0,0,0,2.354.792,9.665,9.665,0,0,1,1.034-.44,5.037,5.037,0,0,1,1.474-.242c1.056,0,1.98.352,2.024,1.65H54.824c-2.86,0-5.39,1.056-5.39,4.378A4.231,4.231,0,0,0,53.944.506h.484a4.861,4.861,0,0,0,3.344-1.3l.176.924ZM57.09-4.29c0,.924-.946,1.408-1.76,1.408h-.308c-.77,0-1.232-.352-1.232-1.078,0-.7.462-1.122,1.3-1.122h2Zm18.634-6.38a2.1,2.1,0,0,0-1.408-2.838,2.235,2.235,0,0,0-2.838,1.5l-2.134,6.82-2.2-6.8a2.288,2.288,0,0,0-2.926-1.518,2.131,2.131,0,0,0-1.5,2.816L66.99.132h4.576ZM83.49.506a8.579,8.579,0,0,0,3.872-.88,2.008,2.008,0,0,0,1.122-2.618,1.581,1.581,0,0,0-1.738-.836,5.163,5.163,0,0,0-1.034.33,5.834,5.834,0,0,1-2.134.286c-1.056,0-2.508-.506-2.508-2v-.022h7.876a9.5,9.5,0,0,0,.11-1.364c0-5.83-3.014-7.018-6.072-7.018-2.816,0-6.27,1.408-6.27,6.094v1.936C76.714-.99,80.3.506,83.49.506Zm-.484-10.56a1.641,1.641,0,0,1,1.782,1.936H81.07A1.782,1.782,0,0,1,83.006-10.054ZM95.5.132V-7.612a1.929,1.929,0,0,1,2-1.87c.308-.022.7,0,1.012,0a1.9,1.9,0,0,0,1.914-1.694,2.036,2.036,0,0,0-1.166-2.266,2.842,2.842,0,0,0-1.034-.176A4.289,4.289,0,0,0,95.3-12.386a2.185,2.185,0,0,0-2.046-1.232,2.1,2.1,0,0,0-2.222,2.2V.132Z" transform="translate(0 17.534)" fill="currentColor"/></svg>